# xmcd
#
# Track frame offsets: 
#        150
#        11841
#        21020
#        33486
#        49323
#        58615
#        71483
#        81540
#        95326
#        107827
#        119211
#        131757
#
# Disc length: 1905 seconds
#
# Revision: 0
# Processed by: cddbd v1.5.2PL0 Copyright (c) Steve Scherf et al.
# Submitted via: ExactAudioCopy v0.99pb4
#
DISCID=ae076f0c
DTITLE=Various Artist - Country Stars on LP Vol. 3
DYEAR=1983
DGENRE=Country
TTITLE0=Johnny Paycheck - Take This Job and Shove It
TTITLE1=Mac Wiseman - Jimmy Brown, The Newsboy
TTITLE2=Alabama - Lovin' You is Killin' Me
TTITLE3=Johnny Darnell - Lucille
TTITLE4=Jerry Lee Lewis - One Minute Past Eternity
TTITLE5=Mike and Mickey - We Don't Want the World
TTITLE6=Mel Tillis - Stateside
TTITLE7=Ben Colder - Fifteen Beers Ago
TTITLE8=Tex Ritter - High Noon
TTITLE9=Jimmie Davis - Nobody's Darling But Mine
TTITLE10=Leroy Van Dyke - The Auctioneer
TTITLE11=Wanda Jackson - The Last Days of Love
EXTD=
EXTT0=
EXTT1=
EXTT2=
EXTT3=
EXTT4=
EXTT5=
EXTT6=
EXTT7=
EXTT8=
EXTT9=
EXTT10=
EXTT11=
PLAYORDER=
